# Blender v2.79 (sub 0) OBJ File: ''
# www.blender.org
mtllib am_model_low_pc.mtl
o cube
v 0.081524 0.390279 0.190608
v 0.081524 0.015279 0.190608
v 0.081524 0.390279 -0.184392
v 0.081524 0.015279 -0.184392
v -0.077851 0.390279 -0.184392
v -0.077851 0.015279 -0.184392
v -0.077851 0.390279 0.190608
v -0.077851 0.015279 0.190608
v 0.065899 0.382466 0.210920
v 0.065899 0.051216 0.210920
v 0.065899 0.382466 0.190608
v 0.065899 0.051216 0.190608
v -0.062226 0.382466 0.190608
v -0.062226 0.051216 0.190608
v -0.062226 0.382466 0.210920
v -0.062226 0.051216 0.210920
v 0.040899 0.051216 0.204670
v 0.040899 0.015279 0.204670
v 0.040899 0.051216 0.190608
v 0.040899 0.015279 0.190608
v -0.037226 0.051216 0.190608
v -0.037226 0.015279 0.190608
v -0.037226 0.051216 0.204670
v -0.037226 0.015279 0.204670
v -0.037226 0.051216 0.210920
v -0.037226 0.015279 0.210920
v -0.037226 0.051216 0.190608
v -0.037226 0.015279 0.190608
v -0.062226 0.051216 0.190608
v -0.062226 0.015279 0.190608
v -0.062226 0.051216 0.210920
v -0.062226 0.015279 0.210920
v 0.065899 0.051216 0.210920
v 0.065899 0.015279 0.210920
v 0.065899 0.051216 0.190608
v 0.065899 0.015279 0.190608
v 0.040899 0.051216 0.190608
v 0.040899 0.015279 0.190608
v 0.040899 0.051216 0.210920
v 0.040899 0.015279 0.210920
vt 0.254000 0.938000
vt 0.254000 0.602000
vt 0.624000 0.938000
vt 0.624000 0.602000
vt 0.624000 0.938000
vt 0.624000 0.602000
vt 0.254000 0.938000
vt 0.254000 0.602000
vt 0.598000 0.268000
vt 0.040000 0.268000
vt 0.598000 0.035000
vt 0.040000 0.035000
vt 0.028000 0.301000
vt 0.385000 0.301000
vt 0.028000 0.450000
vt 0.385000 0.450000
vt 0.181000 0.542000
vt 0.207000 0.542000
vt 0.181000 0.597000
vt 0.207000 0.597000
vt 0.648000 0.972000
vt 0.648000 0.214000
vt 0.961000 0.972000
vt 0.961000 0.214000
vt 0.207000 0.983000
vt 0.207000 0.541000
vt 0.220000 0.983000
vt 0.220000 0.541000
vt 0.011000 0.983000
vt 0.011000 0.540000
vt 0.026000 0.983000
vt 0.026000 0.540000
vt 0.221000 0.759000
vt 0.203000 0.759000
vt 0.221000 0.690000
vt 0.203000 0.690000
vt 0.209000 0.536000
vt 0.209000 0.597000
vt 0.184000 0.536000
vt 0.184000 0.597000
vt 0.018000 0.984000
vt 0.018000 0.539000
vt 0.213000 0.984000
vt 0.213000 0.539000
vt 0.648000 0.972000
vt 0.648000 0.214000
vt 0.961000 0.972000
vt 0.961000 0.214000
vt 0.207000 0.596000
vt 0.207000 0.559000
vt 0.220000 0.596000
vt 0.220000 0.559000
vt 0.011000 0.556000
vt 0.011000 0.511000
vt 0.024000 0.556000
vt 0.024000 0.511000
vt 0.209000 0.536000
vt 0.209000 0.597000
vt 0.184000 0.536000
vt 0.184000 0.597000
vt 0.209000 0.536000
vt 0.209000 0.597000
vt 0.184000 0.536000
vt 0.184000 0.597000
vt 0.061000 0.538000
vt 0.061000 0.496000
vt 0.171000 0.538000
vt 0.171000 0.496000
vt 0.209000 0.536000
vt 0.209000 0.597000
vt 0.184000 0.536000
vt 0.184000 0.597000
vt 0.207000 0.596000
vt 0.207000 0.559000
vt 0.220000 0.596000
vt 0.220000 0.559000
vt 0.011000 0.556000
vt 0.011000 0.511000
vt 0.024000 0.556000
vt 0.024000 0.511000
vt 0.209000 0.536000
vt 0.209000 0.597000
vt 0.184000 0.536000
vt 0.184000 0.597000
vt 0.209000 0.536000
vt 0.209000 0.597000
vt 0.184000 0.536000
vt 0.184000 0.597000
vt 0.026000 0.584000
vt 0.026000 0.542000
vt 0.061000 0.584000
vt 0.061000 0.542000
vt 0.209000 0.536000
vt 0.209000 0.597000
vt 0.184000 0.536000
vt 0.184000 0.597000
vt 0.207000 0.596000
vt 0.207000 0.559000
vt 0.220000 0.596000
vt 0.220000 0.559000
vt 0.011000 0.556000
vt 0.011000 0.511000
vt 0.024000 0.556000
vt 0.024000 0.511000
vt 0.209000 0.536000
vt 0.209000 0.597000
vt 0.184000 0.536000
vt 0.184000 0.597000
vt 0.209000 0.536000
vt 0.209000 0.597000
vt 0.184000 0.536000
vt 0.184000 0.597000
vt 0.026000 0.584000
vt 0.026000 0.542000
vt 0.061000 0.584000
vt 0.061000 0.542000
vt 0.209000 0.536000
vt 0.209000 0.597000
vt 0.184000 0.536000
vt 0.184000 0.597000
vn 1.0000 0.0000 0.0000
vn -1.0000 0.0000 0.0000
vn 0.0000 1.0000 0.0000
vn 0.0000 -1.0000 -0.0000
vn 0.0000 -0.0000 1.0000
vn 0.0000 0.0000 -1.0000
usemtl m_0
s 1
f 1/1/1 2/2/1 3/3/1
f 2/2/1 4/4/1 3/3/1
f 5/5/2 6/6/2 7/7/2
f 6/6/2 8/8/2 7/7/2
f 5/9/3 7/10/3 3/11/3
f 7/10/3 1/12/3 3/11/3
f 8/13/4 6/14/4 2/15/4
f 6/14/4 4/16/4 2/15/4
f 7/17/5 8/18/5 1/19/5
f 8/18/5 2/20/5 1/19/5
f 3/21/6 4/22/6 5/23/6
f 4/22/6 6/24/6 5/23/6
f 9/25/1 10/26/1 11/27/1
f 10/26/1 12/28/1 11/27/1
f 13/29/2 14/30/2 15/31/2
f 14/30/2 16/32/2 15/31/2
f 13/33/3 15/34/3 11/35/3
f 15/34/3 9/36/3 11/35/3
f 16/37/4 14/38/4 10/39/4
f 14/38/4 12/40/4 10/39/4
f 15/41/5 16/42/5 9/43/5
f 16/42/5 10/44/5 9/43/5
f 11/45/6 12/46/6 13/47/6
f 12/46/6 14/48/6 13/47/6
f 17/49/1 18/50/1 19/51/1
f 18/50/1 20/52/1 19/51/1
f 21/53/2 22/54/2 23/55/2
f 22/54/2 24/56/2 23/55/2
f 21/57/3 23/58/3 19/59/3
f 23/58/3 17/60/3 19/59/3
f 24/61/4 22/62/4 18/63/4
f 22/62/4 20/64/4 18/63/4
f 23/65/5 24/66/5 17/67/5
f 24/66/5 18/68/5 17/67/5
f 19/69/6 20/70/6 21/71/6
f 20/70/6 22/72/6 21/71/6
f 25/73/1 26/74/1 27/75/1
f 26/74/1 28/76/1 27/75/1
f 29/77/2 30/78/2 31/79/2
f 30/78/2 32/80/2 31/79/2
f 29/81/3 31/82/3 27/83/3
f 31/82/3 25/84/3 27/83/3
f 32/85/4 30/86/4 26/87/4
f 30/86/4 28/88/4 26/87/4
f 31/89/5 32/90/5 25/91/5
f 32/90/5 26/92/5 25/91/5
f 27/93/6 28/94/6 29/95/6
f 28/94/6 30/96/6 29/95/6
f 33/97/1 34/98/1 35/99/1
f 34/98/1 36/100/1 35/99/1
f 37/101/2 38/102/2 39/103/2
f 38/102/2 40/104/2 39/103/2
f 37/105/3 39/106/3 35/107/3
f 39/106/3 33/108/3 35/107/3
f 40/109/4 38/110/4 34/111/4
f 38/110/4 36/112/4 34/111/4
f 39/113/5 40/114/5 33/115/5
f 40/114/5 34/116/5 33/115/5
f 35/117/6 36/118/6 37/119/6
f 36/118/6 38/120/6 37/119/6
